<svg width="18" height="17" viewBox="0 0 18 17" fill="none" xmlns="http://www.w3.org/2000/svg">
<path d="M13.4174 0.465673C13.2695 0.317727 13.0938 0.20037 12.9005 0.120302C12.7072 0.0402339 12.5001 -0.000976562 12.2908 -0.000976562C12.0816 -0.000976562 11.8744 0.0402339 11.6811 0.120302C11.4878 0.20037 11.3122 0.317727 11.1643 0.465673L8.21928 3.41136V3.01411C8.21928 2.59157 8.05143 2.18632 7.75264 1.88754C7.45385 1.58875 7.04861 1.4209 6.62607 1.4209H1.66939C1.24684 1.4209 0.841601 1.58875 0.542814 1.88754C0.244028 2.18632 0.0761719 2.59157 0.0761719 3.01411V15.7599C0.0761719 16.4439 0.63132 16.999 1.31534 16.999H14.0611C14.4836 16.999 14.8889 16.8312 15.1877 16.5324C15.4864 16.2336 15.6543 15.8284 15.6543 15.4058V10.4463C15.6543 10.0237 15.4864 9.61851 15.1877 9.31972C14.8889 9.02094 14.4836 8.85308 14.0611 8.85308H13.6674L16.6095 5.91094C16.7575 5.76299 16.8748 5.58736 16.9549 5.39406C17.035 5.20076 17.0762 4.99358 17.0762 4.78436C17.0762 4.57513 17.035 4.36795 16.9549 4.17465C16.8748 3.98135 16.7575 3.80572 16.6095 3.65777L13.4174 0.465673ZM10.9143 8.85308H8.21928V6.15806L10.9143 8.85308ZM11.9155 1.21696C12.0151 1.11751 12.1501 1.06165 12.2908 1.06165C12.4316 1.06165 12.5666 1.11751 12.6661 1.21696L15.8582 4.40906C15.9577 4.50864 16.0135 4.64362 16.0135 4.78436C16.0135 4.92509 15.9577 5.06007 15.8582 5.15965L12.6661 8.35175C12.5666 8.4512 12.4316 8.50706 12.2908 8.50706C12.1501 8.50706 12.0151 8.4512 11.9155 8.35175L8.72345 5.15965C8.624 5.06007 8.56813 4.92509 8.56813 4.78436C8.56813 4.64362 8.624 4.50864 8.72345 4.40906L11.9155 1.21696ZM7.15714 3.01411V8.85308H1.13832V3.01411C1.13832 2.87326 1.19427 2.73818 1.29386 2.63859C1.39346 2.53899 1.52854 2.48304 1.66939 2.48304H6.62607C6.76692 2.48304 6.902 2.53899 7.00159 2.63859C7.10119 2.73818 7.15714 2.87326 7.15714 3.01411ZM1.13832 15.4058V9.91522H7.15714V15.9369H1.66939C1.52854 15.9369 1.39346 15.8809 1.29386 15.7813C1.19427 15.6817 1.13832 15.5467 1.13832 15.4058ZM8.21928 9.91522H14.0611C14.2019 9.91522 14.337 9.97118 14.4366 10.0708C14.5362 10.1704 14.5922 10.3054 14.5922 10.4463V15.4058C14.5922 15.5467 14.5362 15.6817 14.4366 15.7813C14.337 15.8809 14.2019 15.9369 14.0611 15.9369H8.21928V9.91522Z" fill="#53A9F9"/>
</svg>
