<svg width="18" height="17" viewBox="0 0 18 17" fill="none" xmlns="http://www.w3.org/2000/svg">
<path d="M5.11602 5.53728L4.97617 5.58139V5.72802V7.44902H0.276172V5.52402C0.276172 4.92898 0.756129 4.44902 1.35117 4.44902H3.90114C3.90115 4.44902 3.90116 4.44902 3.90117 4.44902C4.55043 4.44911 5.17865 4.21876 5.67397 3.799C6.12582 3.41608 6.44032 2.8982 6.57282 2.32402H7.88128C7.77106 3.02534 7.47699 3.68645 7.02726 4.23916C6.53075 4.84937 5.86628 5.30068 5.11602 5.53728ZM12.1762 15.078V14.9314L12.0363 14.8873C11.2861 14.6507 10.6216 14.1994 10.1251 13.5892C9.67536 13.0365 9.38129 12.3753 9.27106 11.674H10.5795C10.712 12.2482 11.0265 12.7661 11.4784 13.149C11.9737 13.5688 12.6019 13.7991 13.2512 13.799C13.2512 13.799 13.2512 13.799 13.2512 13.799H15.8012C16.3962 13.799 16.8762 14.279 16.8762 14.874V16.799H12.1762V15.078ZM7.52935 9.99902H6.22885C6.27991 8.09567 7.05829 6.28101 8.40823 4.93108C9.75816 3.58114 11.5728 2.80277 13.4762 2.75171V4.0522C10.2354 4.15542 7.63257 6.75827 7.52935 9.99902ZM9.63103 9.99902C9.73218 7.92252 11.3997 6.25503 13.4762 6.15388V7.45615C12.1145 7.55351 11.0307 8.63738 10.9333 9.99902H9.63103ZM2.62617 0.199023C3.45921 0.199023 4.12617 0.86598 4.12617 1.69902C4.12617 2.53207 3.45921 3.19902 2.62617 3.19902C1.79313 3.19902 1.12617 2.53207 1.12617 1.69902C1.12617 0.86598 1.79313 0.199023 2.62617 0.199023ZM16.0262 11.049C16.0262 11.8821 15.3592 12.549 14.5262 12.549C13.6931 12.549 13.0262 11.8821 13.0262 11.049C13.0262 10.216 13.6931 9.54902 14.5262 9.54902C15.3592 9.54902 16.0262 10.216 16.0262 11.049Z" fill="#787878" stroke="white" stroke-width="0.4"/>
</svg>
