<svg width="16" height="15" viewBox="0 0 16 15" fill="none" xmlns="http://www.w3.org/2000/svg">
<path d="M14.2936 10.4827H14.4436V10.3327V1.83268V1.68268H14.2936H1.54362H1.39362V1.83268V10.3327V10.4827H1.54362H14.2936ZM9.33529 11.5993H9.18529V11.7493V13.166V13.316H9.33529H10.602V14.4327H5.23529V13.316H6.50195H6.65195V13.166V11.7493V11.5993H6.50195H1.54362C1.20768 11.5993 0.885497 11.4659 0.647951 11.2284C0.410405 10.9908 0.276953 10.6686 0.276953 10.3327V1.83268C0.276953 1.12928 0.840212 0.566016 1.54362 0.566016H14.2936C14.6296 0.566016 14.9517 0.699468 15.1893 0.937014C15.4268 1.17456 15.5603 1.49674 15.5603 1.83268V10.3327C15.5603 10.6686 15.4268 10.9908 15.1893 11.2284C14.9517 11.4659 14.6296 11.5993 14.2936 11.5993H9.33529ZM5.64362 8.91602V9.06602V9.47435H2.04779V7.29518H5.64362V8.91602ZM5.94362 8.76602V7.29518H9.18529V8.76602H5.94362ZM2.04779 2.33685H9.18529V6.64102H2.04779V2.33685ZM9.83945 2.33685H13.7895V4.87018H9.83945V2.33685ZM13.7895 5.52435V9.12018H10.1936V5.52435H13.7895Z" fill="#53A9F9" stroke="white" stroke-width="0.3"/>
</svg>
