<svg width="54" height="51" viewBox="0 0 54 51" fill="none" xmlns="http://www.w3.org/2000/svg">
<rect x="0.857422" y="0.851562" width="52.4399" height="50" rx="25" fill="#53A9F9"/>
<path d="M28.1333 23.7491C27.231 23.5389 26.3288 23.1184 25.6521 22.4877C24.9753 22.2775 24.7498 21.6468 24.7498 21.2264C24.7498 20.8059 24.9753 20.1752 25.4265 19.965C26.1032 19.5446 26.7799 19.1241 27.4566 19.3343C28.81 19.3343 29.9379 19.965 30.6146 20.8059L32.6447 18.2832C31.968 17.6525 31.2913 17.2321 30.6146 16.8116C29.9379 16.3912 29.0356 16.1809 28.1333 16.1809V13.2377H25.4265V16.1809C24.2986 16.3912 23.1708 17.0218 22.2685 17.8627C21.3662 18.9139 20.6895 20.1752 20.9151 21.4366C20.9151 22.698 21.3662 23.9593 22.2685 24.8002C23.3964 25.8514 24.9753 26.4821 26.3288 27.1127C27.0055 27.323 27.9077 27.7434 28.5845 28.1639C29.0356 28.5843 29.2612 29.215 29.2612 29.8457C29.2612 30.4764 29.0356 31.1071 28.5845 31.7377C27.9077 32.3684 27.0055 32.5787 26.3288 32.5787C25.4265 32.5787 24.2986 32.3684 23.6219 31.7377C22.9452 31.3173 22.2685 30.6866 21.8174 30.0559L19.5617 32.3684C20.2384 33.2093 20.9151 33.84 21.8174 34.4707C22.9452 35.1014 24.2986 35.7321 25.6521 35.7321V38.465H28.1333V35.3116C29.4867 35.1014 30.6146 34.4707 31.5169 33.6298C32.6447 32.5787 33.3214 30.8968 33.3214 29.4252C33.3214 28.1639 32.8703 26.6923 31.7424 25.8514C30.6146 24.8002 29.4867 24.1696 28.1333 23.7491ZM26.7799 9.0332C16.8549 9.0332 8.73438 16.6014 8.73438 25.8514C8.73438 35.1014 16.8549 42.6696 26.7799 42.6696C36.7049 42.6696 44.8254 35.1014 44.8254 25.8514C44.8254 16.6014 36.7049 9.0332 26.7799 9.0332ZM26.7799 40.3571C18.2083 40.3571 11.2156 33.84 11.2156 25.8514C11.2156 17.8627 18.2083 11.3457 26.7799 11.3457C35.3515 11.3457 42.3442 17.8627 42.3442 25.8514C42.3442 33.84 35.3515 40.3571 26.7799 40.3571Z" fill="white"/>
</svg>
