<svg width="17" height="18" viewBox="0 0 17 18" fill="none" xmlns="http://www.w3.org/2000/svg">
<path d="M8.5 0.436523C6.81886 0.436523 5.17547 0.93504 3.77766 1.86903C2.37984 2.80302 1.29037 4.13054 0.647028 5.68371C0.00368289 7.23688 -0.164645 8.94595 0.163329 10.5948C0.491303 12.2436 1.30085 13.7582 2.4896 14.9469C3.67834 16.1357 5.1929 16.9452 6.84173 17.2732C8.49057 17.6012 10.1996 17.4328 11.7528 16.7895C13.306 16.1462 14.6335 15.0567 15.5675 13.6589C16.5015 12.2611 17 10.6177 17 8.93652C17 6.68218 16.1045 4.52017 14.5104 2.92612C12.9164 1.33206 10.7543 0.436523 8.5 0.436523ZM8.5 16.374C7.029 16.374 5.59104 15.9378 4.36795 15.1206C3.14486 14.3033 2.19158 13.1418 1.62865 11.7827C1.06572 10.4237 0.918436 8.92827 1.20541 7.48554C1.49239 6.0428 2.20074 4.71757 3.2409 3.67742C4.28105 2.63726 5.60629 1.92891 7.04902 1.64193C8.49175 1.35496 9.98718 1.50224 11.3462 2.06517C12.7052 2.6281 13.8668 3.58138 14.6841 4.80447C15.5013 6.02756 15.9375 7.46552 15.9375 8.93652C15.9375 10.9091 15.1539 12.8008 13.7591 14.1956C12.3643 15.5904 10.4725 16.374 8.5 16.374Z" fill="#53A9F9"/>
<path d="M8.65406 4.11284C8.07837 4.10332 7.50765 4.22072 6.98246 4.45669C6.45727 4.69266 5.9905 5.04141 5.61531 5.47815C5.56319 5.52646 5.52129 5.58473 5.49209 5.64952C5.46289 5.71431 5.44698 5.78429 5.44531 5.85534C5.44528 5.92089 5.45843 5.98577 5.48398 6.04613C5.50953 6.10649 5.54697 6.1611 5.59405 6.2067C5.64114 6.2523 5.69692 6.28796 5.75807 6.31156C5.81922 6.33517 5.88449 6.34623 5.95 6.34409C6.09034 6.34061 6.22454 6.2858 6.32719 6.19003C6.61112 5.85729 6.96377 5.59003 7.36087 5.40661C7.75797 5.22319 8.19009 5.12798 8.6275 5.12753C9.88125 5.12753 10.6622 5.93503 10.6622 6.93909V6.96565C10.6622 8.13971 9.72719 8.79315 8.25031 8.90471C8.19051 8.90702 8.13187 8.92194 8.07823 8.94847C8.02459 8.97501 7.97716 9.01258 7.93905 9.05872C7.90093 9.10486 7.87299 9.15853 7.85705 9.21622C7.84112 9.2739 7.83754 9.3343 7.84656 9.39346V10.8544C7.85978 10.9859 7.92153 11.1077 8.01976 11.1962C8.118 11.2846 8.24565 11.3332 8.37781 11.3325H8.43625C8.56775 11.3193 8.6896 11.2576 8.77801 11.1593C8.86642 11.0611 8.91504 10.9334 8.91437 10.8013V9.7069C10.5081 9.48378 11.7991 8.6444 11.7991 6.9019V6.87534C11.7831 5.28159 10.54 4.11284 8.65406 4.11284Z" fill="#53A9F9"/>
<path d="M8.38281 13.957C8.74956 13.957 9.04687 13.6597 9.04687 13.293C9.04687 12.9262 8.74956 12.6289 8.38281 12.6289C8.01606 12.6289 7.71875 12.9262 7.71875 13.293C7.71875 13.6597 8.01606 13.957 8.38281 13.957Z" fill="#53A9F9"/>
</svg>
