<svg width="17" height="17" viewBox="0 0 17 17" fill="none" xmlns="http://www.w3.org/2000/svg">
<path fill-rule="evenodd" clip-rule="evenodd" d="M3.315 0.197357C3.36488 0.135156 3.42679 0.0852194 3.49649 0.0509817C3.56619 0.0167439 3.64202 -0.000981946 3.71875 -0.000976561H13.2812C13.358 -0.000981946 13.4338 0.0167439 13.5035 0.0509817C13.5732 0.0852194 13.6351 0.135156 13.685 0.197357L16.6164 3.84556C16.8639 4.15363 17 4.54597 17 4.95169V5.09902H15.9375V4.95169C15.9375 4.81663 15.8923 4.686 15.81 4.58336L13.0369 1.13236H3.96312L1.19 4.58336C1.10771 4.686 1.06249 4.81663 1.0625 4.95169V5.09902H0V4.95169C1.33801e-05 4.54597 0.13606 4.15363 0.383563 3.84556L3.31606 0.196223L3.315 0.197357Z" fill="#53A9F9"/>
<path d="M2.52344 6.65745C3.33094 6.65745 3.98438 5.95932 3.98438 5.09912H5.04688C5.04688 5.51242 5.20079 5.90879 5.47477 6.20103C5.74875 6.49327 6.12035 6.65745 6.50781 6.65745C6.89528 6.65745 7.26687 6.49327 7.54085 6.20103C7.81483 5.90879 7.96875 5.51242 7.96875 5.09912H9.03125C9.03125 5.51242 9.18517 5.90879 9.45915 6.20103C9.73313 6.49327 10.1047 6.65745 10.4922 6.65745C10.8797 6.65745 11.2512 6.49327 11.5252 6.20103C11.7992 5.90879 11.9531 5.51242 11.9531 5.09912H13.0156C13.0156 5.51242 13.1695 5.90879 13.4435 6.20103C13.7175 6.49327 14.0891 6.65745 14.4766 6.65745C14.864 6.65745 15.2356 6.49327 15.5096 6.20103C15.7836 5.90879 15.9375 5.51242 15.9375 5.09912H17C17.0001 5.66009 16.8358 6.20707 16.5302 6.6636C16.2246 7.12013 15.7929 7.4634 15.2954 7.64543C14.798 7.82747 14.2596 7.83916 13.7556 7.67889C13.2516 7.51862 12.8072 7.1944 12.4844 6.75152C12.2486 7.07539 11.9466 7.33743 11.6013 7.51757C11.256 7.6977 10.8766 7.79116 10.4922 7.79079C10.1078 7.79125 9.72838 7.69782 9.38306 7.51768C9.03774 7.33754 8.73567 7.07546 8.5 6.75152C8.26433 7.07546 7.96226 7.33754 7.61694 7.51768C7.27162 7.69782 6.89222 7.79125 6.50781 7.79079C6.12341 7.79125 5.74401 7.69782 5.39869 7.51768C5.05337 7.33754 4.7513 7.07546 4.51562 6.75152C4.19283 7.1944 3.74837 7.51862 3.24438 7.67889C2.74039 7.83916 2.20205 7.82747 1.70459 7.64543C1.20714 7.4634 0.775437 7.12013 0.469819 6.6636C0.164201 6.20707 -5.8011e-05 5.66009 1.53686e-08 5.09912H1.0625C1.0625 5.96045 1.717 6.65745 2.52344 6.65745Z" fill="#53A9F9"/>
<path d="M5.04688 5.09889C5.04688 5.24918 4.9909 5.39332 4.89128 5.49959C4.79165 5.60586 4.65652 5.66556 4.51562 5.66556C4.37473 5.66556 4.2396 5.60586 4.13997 5.49959C4.04035 5.39332 3.98438 5.24918 3.98438 5.09889C3.98438 4.9486 4.04035 4.80447 4.13997 4.6982C4.2396 4.59193 4.37473 4.53223 4.51562 4.53223C4.65652 4.53223 4.79165 4.59193 4.89128 4.6982C4.9909 4.80447 5.04688 4.9486 5.04688 5.09889ZM9.03125 5.09889C9.03125 5.24918 8.97528 5.39332 8.87565 5.49959C8.77602 5.60586 8.6409 5.66556 8.5 5.66556C8.3591 5.66556 8.22398 5.60586 8.12435 5.49959C8.02472 5.39332 7.96875 5.24918 7.96875 5.09889C7.96875 4.9486 8.02472 4.80447 8.12435 4.6982C8.22398 4.59193 8.3591 4.53223 8.5 4.53223C8.6409 4.53223 8.77602 4.59193 8.87565 4.6982C8.97528 4.80447 9.03125 4.9486 9.03125 5.09889ZM13.0156 5.09889C13.0156 5.24918 12.9597 5.39332 12.86 5.49959C12.7604 5.60586 12.6253 5.66556 12.4844 5.66556C12.3435 5.66556 12.2084 5.60586 12.1087 5.49959C12.0091 5.39332 11.9531 5.24918 11.9531 5.09889C11.9531 4.9486 12.0091 4.80447 12.1087 4.6982C12.2084 4.59193 12.3435 4.53223 12.4844 4.53223C12.6253 4.53223 12.7604 4.59193 12.86 4.6982C12.9597 4.80447 13.0156 4.9486 13.0156 5.09889ZM2.125 8.90009V15.8656H14.875V8.90009C15.2419 8.85739 15.6003 8.75416 15.9375 8.59409V15.8656H16.4688C16.6096 15.8656 16.7448 15.9253 16.8444 16.0315C16.944 16.1378 17 16.2819 17 16.4322C17 16.5825 16.944 16.7267 16.8444 16.8329C16.7448 16.9392 16.6096 16.9989 16.4688 16.9989H0.53125C0.390354 16.9989 0.255228 16.9392 0.1556 16.8329C0.0559708 16.7267 0 16.5825 0 16.4322C0 16.2819 0.0559708 16.1378 0.1556 16.0315C0.255228 15.9253 0.390354 15.8656 0.53125 15.8656H1.0625V8.59296C1.39294 8.75163 1.74994 8.85589 2.125 8.90009ZM2.125 7.75769V6.79889H1.0625V7.29416C1.37169 7.52876 1.734 7.69083 2.125 7.75769ZM15.9375 7.29416C15.6283 7.52876 15.266 7.69083 14.875 7.75769V6.79889H15.9375V7.29416Z" fill="#53A9F9"/>
<path d="M4.25 13.5993V9.06592H3.1875V13.5993C3.1875 13.8998 3.29944 14.1881 3.4987 14.4006C3.69796 14.6132 3.96821 14.7326 4.25 14.7326H12.75C13.0318 14.7326 13.302 14.6132 13.5013 14.4006C13.7006 14.1881 13.8125 13.8998 13.8125 13.5993V9.06592H12.75V13.5993H4.25Z" fill="#53A9F9"/>
</svg>
