<svg width="18" height="17" viewBox="0 0 18 17" fill="none" xmlns="http://www.w3.org/2000/svg">
<path d="M9.0523 0.20074L9.05231 0.200748L9.05353 0.2002L9.25781 0.108614L9.4621 0.2002L9.46209 0.200208L9.46333 0.200746L13.3864 1.89617L13.3865 1.8962L13.7347 2.04632V6.71517V6.77882L13.7924 6.80577L17.3255 8.45676L17.6578 8.62617V14.1933L17.3772 14.3821L13.458 16.7361L13.4563 16.7371L13.1981 16.8855L12.9414 16.756L9.30524 14.797L9.25781 14.7714L9.21038 14.797L5.57494 16.756L5.3176 16.8855L5.0593 16.7371L5.05763 16.7361L1.13842 14.3821L0.857813 14.1933V8.62617L1.19009 8.45677L4.72322 6.80577L4.78089 6.77882V6.71517V2.04703L5.12913 1.89691L5.12923 1.89686L9.0523 0.20074ZM9.29657 1.44864L9.2578 1.43234L9.21903 1.44865L7.07376 2.35133L6.8547 2.4435L7.07376 2.53567L9.21903 3.43835L9.25783 3.45467L9.29662 3.43834L11.4419 2.53496L11.6609 2.44272L11.4418 2.35061L9.29657 1.44864ZM6.02669 3.3862L5.88858 3.32926V3.47865V6.73772V6.80065L5.94532 6.82788L8.5607 8.08288L8.70397 8.15163V7.99272V4.55679V4.48984L8.64208 4.46433L6.02669 3.3862ZM12.627 3.47865V3.32923L12.4889 3.38621L9.87353 4.46505L9.81166 4.49057V4.55749V7.99272V8.15166L9.95494 8.08287L12.5703 6.82716L12.627 6.79993V6.73701V3.47865ZM5.37756 7.87981L5.33515 7.85971L5.29259 7.87949L2.9224 8.98088L2.7415 9.06494L2.9171 9.15959L5.28729 10.4371L5.33433 10.4625L5.38155 10.4375L7.75174 9.18177L7.92793 9.08843L7.74775 9.00304L5.37756 7.87981ZM13.223 7.87949L13.1806 7.85976L13.1382 7.87973L11.5036 8.65063L11.5031 8.65089L10.7675 9.00322L10.5886 9.08891L10.7639 9.18177L13.1341 10.4375L13.1813 10.4625L13.2283 10.4371L15.5985 9.15959L15.7741 9.06494L15.5932 8.98088L13.223 7.87949ZM2.11294 10.0631L1.9655 9.98363V10.1511V13.4327V13.489L2.01366 13.5182L4.62905 15.1037L4.78089 15.1958V15.0182V11.5604V11.5007L4.72833 11.4724L2.11294 10.0631ZM16.5501 10.1511V9.98363L16.4027 10.0631L13.7873 11.4724L13.7347 11.5007V11.5604V15.0182V15.1958L13.8866 15.1037L16.502 13.5182L16.5501 13.489V13.4327V10.1511ZM8.70397 10.1955V10.0305L8.5577 10.1068L5.94231 11.4718L5.88858 11.4998V11.5604V15.0619V15.2294L6.03602 15.1499L8.6514 13.7406L8.70397 13.7123V13.6526V10.1955ZM9.95792 10.1068L9.81166 10.0305V10.1955V13.6526V13.7123L9.86422 13.7406L12.4796 15.1499L12.627 15.2294V15.0619V11.5604V11.4998L12.5733 11.4718L9.95792 10.1068Z" fill="#787878" stroke="white" stroke-width="0.2"/>
</svg>
