<svg width="53" height="51" viewBox="0 0 53 51" fill="none" xmlns="http://www.w3.org/2000/svg">
<rect x="0.130859" y="0.259766" width="52.4399" height="50" rx="25" fill="#626CB2"/>
<path d="M41.1315 32.3112H12.4538C12.2928 32.3112 12.1611 32.4556 12.1611 32.6322V34.8792C12.1611 35.0558 12.2928 35.2003 12.4538 35.2003H41.1315C41.2925 35.2003 41.4241 35.0558 41.4241 34.8792V32.6322C41.4241 32.4556 41.2925 32.3112 41.1315 32.3112ZM14.1254 27.2874L15.5776 28.8724C15.691 28.9968 15.8775 28.9968 15.9909 28.8724L24.576 19.4869L28.1461 23.3912C28.366 23.6302 28.6631 23.7643 28.9727 23.7643C29.2824 23.7643 29.5795 23.6302 29.7994 23.3912L39.4635 12.83C39.5769 12.7056 39.5769 12.501 39.4635 12.3766L38.0114 10.7876C37.9564 10.7278 37.8821 10.6943 37.8047 10.6943C37.7273 10.6943 37.653 10.7278 37.598 10.7876L28.9764 20.2172L25.4026 16.3129C25.1827 16.0739 24.8856 15.9398 24.576 15.9398C24.2663 15.9398 23.9692 16.0739 23.7493 16.3129L14.1254 26.834C14.0981 26.8636 14.0763 26.8989 14.0615 26.9378C14.0467 26.9768 14.039 27.0185 14.039 27.0607C14.039 27.1029 14.0467 27.1446 14.0615 27.1836C14.0763 27.2225 14.0981 27.2578 14.1254 27.2874Z" fill="white"/>
</svg>
