<svg width="19" height="19" viewBox="0 0 19 19" fill="none" xmlns="http://www.w3.org/2000/svg">
<path d="M9.87812 6.96928C9.34154 6.91777 8.80171 7.02873 8.33251 7.28697C7.86332 7.54521 7.48772 7.9381 7.25712 8.41185C7.02652 8.88561 6.95221 9.41706 7.04435 9.93346C7.1365 10.4498 7.3906 10.9259 7.77186 11.2965C8.15312 11.6671 8.64291 11.9141 9.17416 12.0037C9.70541 12.0933 10.2522 12.021 10.7395 11.7969C11.2269 11.5727 11.6311 11.2076 11.8968 10.7516C12.1625 10.2955 12.2766 9.77075 12.2236 9.24919C12.1632 8.6645 11.8967 8.11811 11.4692 7.70259C11.0417 7.28708 10.4796 7.02801 9.87812 6.96928V6.96928ZM16.175 9.49902C16.1734 9.77534 16.1525 10.0512 16.1125 10.3248L17.9599 11.7333C18.0404 11.7981 18.0946 11.8885 18.1129 11.9885C18.1312 12.0885 18.1125 12.1916 18.06 12.2794L16.3123 15.2186C16.2593 15.3056 16.1763 15.3716 16.0781 15.405C15.9798 15.4383 15.8727 15.4369 15.7754 15.401L13.9407 14.6828C13.8395 14.6437 13.7299 14.6295 13.6217 14.6417C13.5135 14.6538 13.4101 14.6918 13.3208 14.7523C13.0408 14.9398 12.7465 15.1063 12.4406 15.2504C12.3444 15.2959 12.2612 15.3636 12.1984 15.4477C12.1355 15.5318 12.0949 15.6297 12.0802 15.7326L11.8052 17.6348C11.7871 17.7353 11.7337 17.8265 11.6541 17.8929C11.5745 17.9594 11.4737 17.9969 11.3688 17.999H7.8734C7.77024 17.9973 7.67076 17.9614 7.59136 17.8974C7.51196 17.8334 7.45737 17.7449 7.43658 17.6467L7.16198 15.7473C7.14656 15.6432 7.10492 15.5445 7.04076 15.4598C6.9766 15.3751 6.89191 15.3071 6.79422 15.2619C6.48865 15.1186 6.19541 14.9516 5.91731 14.7627C5.82827 14.7024 5.72521 14.6647 5.61742 14.6529C5.50964 14.641 5.40051 14.6554 5.29987 14.6947L3.46555 15.4125C3.36834 15.4485 3.26119 15.4499 3.16297 15.4167C3.06475 15.3834 2.98176 15.3175 2.92862 15.2306L1.18093 12.2913C1.12838 12.2035 1.1096 12.1004 1.12794 12.0004C1.14627 11.9004 1.20052 11.8099 1.28104 11.7452L2.8424 10.5536C2.92794 10.4876 2.99517 10.4019 3.03798 10.3042C3.0808 10.2065 3.09784 10.1 3.08757 9.99433C3.07286 9.8287 3.06387 9.66346 3.06387 9.49783C3.06387 9.3322 3.07245 9.16935 3.08757 9.00729C3.09672 8.90225 3.07884 8.79664 3.03554 8.69998C2.99224 8.60332 2.92488 8.51866 2.83954 8.4536L1.279 7.26201C1.19979 7.19691 1.14668 7.10679 1.12897 7.00744C1.11126 6.90809 1.13009 6.80586 1.18215 6.71865L2.92984 3.7794C2.98292 3.69241 3.06588 3.62642 3.16411 3.59307C3.26234 3.55971 3.36952 3.56114 3.46678 3.59708L5.30151 4.31521C5.40269 4.35437 5.51228 4.36852 5.62046 4.35639C5.72865 4.34426 5.83205 4.30623 5.92139 4.24571C6.20141 4.05828 6.49564 3.89177 6.80157 3.74762C6.89776 3.70218 6.98095 3.63442 7.0438 3.55033C7.10666 3.46623 7.14725 3.36838 7.16198 3.26543L7.43699 1.36325C7.45505 1.26279 7.50844 1.17155 7.58804 1.10512C7.66764 1.03868 7.76851 1.00118 7.8734 0.999023H11.3688C11.4719 1.00076 11.5714 1.0366 11.6508 1.10064C11.7302 1.16468 11.7848 1.2531 11.8056 1.35134L12.0802 3.25073C12.0956 3.35482 12.1373 3.4536 12.2014 3.53827C12.2656 3.62295 12.3503 3.69091 12.448 3.7361C12.7535 3.87947 13.0468 4.04643 13.3249 4.23538C13.4139 4.2956 13.517 4.33334 13.6248 4.34519C13.7326 4.35705 13.8417 4.34265 13.9423 4.3033L15.7766 3.58557C15.8738 3.54958 15.981 3.5481 16.0792 3.58138C16.1774 3.61466 16.2604 3.68056 16.3136 3.76748L18.0613 6.70673C18.1138 6.79455 18.1326 6.89764 18.1142 6.99765C18.0959 7.09767 18.0417 7.18811 17.9611 7.25288L16.3998 8.44447C16.3139 8.51026 16.2463 8.59589 16.2031 8.69356C16.1599 8.79124 16.1425 8.89786 16.1526 9.00372C16.1661 9.16816 16.175 9.33339 16.175 9.49902Z" stroke="#787878" stroke-width="1.5" stroke-linecap="round" stroke-linejoin="round"/>
</svg>
