<svg width="53" height="51" viewBox="0 0 53 51" fill="none" xmlns="http://www.w3.org/2000/svg">
<rect x="0.163086" y="0.77832" width="52.4399" height="50" rx="25" fill="#8A8A8A"/>
<path d="M25.3541 26.8301C26.5631 26.8301 27.5432 25.9298 27.5432 24.8193C27.5432 23.7088 26.5631 22.8086 25.3541 22.8086C24.1451 22.8086 23.165 23.7088 23.165 24.8193C23.165 25.9298 24.1451 26.8301 25.3541 26.8301Z" fill="white"/>
<path d="M25.3504 12.755C21.8669 12.755 18.526 14.0261 16.0628 16.2886C13.5996 18.5511 12.2158 21.6197 12.2158 24.8194C12.2158 28.0191 13.5996 31.0877 16.0628 33.3502C18.526 35.6127 21.8669 36.8838 25.3504 36.8838V34.8731C23.1856 34.8731 21.0694 34.2834 19.2694 33.1787C17.4694 32.074 16.0665 30.5038 15.2381 28.6668C14.4096 26.8297 14.1929 24.8082 14.6152 22.858C15.0376 20.9078 16.08 19.1164 17.6108 17.7104C19.1415 16.3043 21.0918 15.3468 23.215 14.9589C25.3382 14.571 27.539 14.7701 29.539 15.531C31.539 16.292 33.2485 17.5806 34.4512 19.2339C35.6539 20.8872 36.2958 22.831 36.2958 24.8194C36.3179 25.1542 36.3179 25.4899 36.2958 25.8248H38.4849C38.4849 25.493 38.5396 25.1612 38.5396 24.8194C38.5396 23.2308 38.1981 21.6579 37.5346 20.1909C36.8711 18.7239 35.8987 17.3917 34.6733 16.2707C33.4478 15.1498 31.9934 14.2622 30.3935 13.6589C28.7937 13.0555 27.0798 12.7484 25.3504 12.755Z" fill="white"/>
<path d="M28.6367 34.874H38.6737L35.8388 37.4779L37.3931 38.8955L42.8658 33.8686L37.3931 28.8418L35.8388 30.2694L38.6737 32.8633H28.6367V34.874Z" fill="white"/>
<path d="M25.3505 30.8515C24.0516 30.8515 22.7819 30.4977 21.7019 29.8349C20.6219 29.1721 19.7802 28.23 19.2831 27.1277C18.786 26.0255 18.656 24.8126 18.9094 23.6425C19.1628 22.4724 19.7883 21.3975 20.7067 20.5539C21.6252 19.7103 22.7953 19.1358 24.0693 18.903C25.3432 18.6703 26.6637 18.7897 27.8637 19.2463C29.0637 19.7028 30.0893 20.476 30.811 21.468C31.5326 22.46 31.9178 23.6263 31.9178 24.8193C31.9178 26.4192 31.2259 27.9535 29.9942 29.0847C28.7626 30.216 27.0922 30.8515 25.3505 30.8515ZM25.3505 20.7978C24.4846 20.7978 23.6381 21.0337 22.9181 21.4756C22.1981 21.9175 21.6369 22.5455 21.3056 23.2804C20.9742 24.0152 20.8875 24.8238 21.0564 25.6039C21.2254 26.384 21.6423 27.1005 22.2546 27.6629C22.8669 28.2253 23.6471 28.6083 24.4963 28.7635C25.3456 28.9187 26.2259 28.839 27.0259 28.5347C27.8259 28.2303 28.5097 27.7149 28.9908 27.0535C29.4719 26.3922 29.7287 25.6147 29.7287 24.8193C29.7287 23.7528 29.2674 22.7299 28.4463 21.9757C27.6253 21.2215 26.5116 20.7978 25.3505 20.7978Z" fill="white"/>
</svg>
