<svg width="19" height="18" viewBox="0 0 19 18" fill="none" xmlns="http://www.w3.org/2000/svg">
<g clip-path="url(#clip0)">
<path d="M13.8841 7.49897L11.494 5.01174C11.4608 4.97439 11.4279 4.93681 11.3954 4.89899C10.9871 4.42444 10.7666 3.8448 10.7676 3.249C10.7676 2.51966 11.0959 1.82019 11.6804 1.30447C12.2648 0.788752 13.0575 0.499023 13.8841 0.499023C14.7106 0.499023 15.5033 0.788752 16.0878 1.30447C16.6723 1.82019 17.0006 2.51966 17.0006 3.249C17.0016 3.84453 16.7811 4.4239 16.3731 4.89824L16.3728 4.89899C16.3728 4.89899 16.2878 4.99749 16.275 5.01074L13.8841 7.49897ZM11.8476 4.59774C11.8482 4.59774 11.9139 4.67474 11.9289 4.69124L13.8841 6.72597L15.8418 4.68849C15.8543 4.67474 15.9206 4.59724 15.9209 4.59699C16.2544 4.20927 16.4346 3.73575 16.434 3.249C16.434 2.65227 16.1653 2.07998 15.6871 1.65802C15.2089 1.23607 14.5604 0.999019 13.8841 0.999019C13.2078 0.999019 12.5593 1.23607 12.0811 1.65802C11.6029 2.07998 11.3342 2.65227 11.3342 3.249C11.3336 3.73606 11.5141 4.20985 11.8479 4.59774H11.8476Z" fill="#53A9F9"/>
<path d="M15.3019 4.499H14.7353V2.49902H13.0354V4.499H12.4688V2.49902C12.4689 2.36645 12.5286 2.23935 12.6349 2.14562C12.7411 2.05188 12.8852 1.99916 13.0354 1.99902H14.7353C14.8855 1.99916 15.0296 2.05188 15.1358 2.14562C15.242 2.23935 15.3018 2.36645 15.3019 2.49902V4.499Z" fill="#53A9F9"/>
<path d="M13.6016 3.99902H14.1682V4.49902H13.6016V3.99902Z" fill="#53A9F9"/>
<path d="M13.6016 2.99902H14.1682V3.49902H13.6016V2.99902Z" fill="#53A9F9"/>
</g>
<path d="M13.884 16.9989V7.99901M17.2839 7.99901H1.41797V16.9989H17.2839V7.99901ZM11.6175 7.99901C11.6175 7.99901 11.6175 5.99902 9.35092 5.99902C7.08436 5.99902 7.08436 7.99901 7.08436 7.99901H11.6175ZM4.8178 16.9989V7.99901V16.9989Z" stroke="#53A9F9" stroke-linecap="round" stroke-linejoin="round"/>
<defs>
<clipPath id="clip0">
<rect width="9.06623" height="7.99994" fill="white" transform="translate(9.35156 -0.000976562)"/>
</clipPath>
</defs>
</svg>
